<mxfile host="app.diagrams.net" agent="Mozilla/5.0 (X11; Linux x86_64) AppleWebKit/537.36 (KHTML, like Gecko) Chrome/134.0.0.0 Safari/537.36" version="26.2.3">
  <diagram id="C5RBs43oDa-KdzZeNtuy" name="Page-1">
    <mxGraphModel dx="2255" dy="1973" grid="1" gridSize="10" guides="1" tooltips="1" connect="1" arrows="1" fold="1" page="1" pageScale="1" pageWidth="827" pageHeight="1169" math="0" shadow="0">
      <root>
        <mxCell id="WIyWlLk6GJQsqaUBKTNV-0" />
        <mxCell id="WIyWlLk6GJQsqaUBKTNV-1" parent="WIyWlLk6GJQsqaUBKTNV-0" />
        <mxCell id="WIyWlLk6GJQsqaUBKTNV-2" value="" style="rounded=0;html=1;jettySize=auto;orthogonalLoop=1;fontSize=11;endArrow=block;endFill=0;endSize=8;strokeWidth=1;shadow=0;labelBackgroundColor=none;edgeStyle=orthogonalEdgeStyle;" parent="WIyWlLk6GJQsqaUBKTNV-1" edge="1">
          <mxGeometry relative="1" as="geometry">
            <mxPoint x="220" y="120" as="sourcePoint" />
          </mxGeometry>
        </mxCell>
        <mxCell id="WIyWlLk6GJQsqaUBKTNV-4" value="Yes" style="rounded=0;html=1;jettySize=auto;orthogonalLoop=1;fontSize=11;endArrow=block;endFill=0;endSize=8;strokeWidth=1;shadow=0;labelBackgroundColor=none;edgeStyle=orthogonalEdgeStyle;" parent="WIyWlLk6GJQsqaUBKTNV-1" edge="1">
          <mxGeometry y="20" relative="1" as="geometry">
            <mxPoint as="offset" />
            <mxPoint x="220" y="250" as="sourcePoint" />
          </mxGeometry>
        </mxCell>
        <mxCell id="WIyWlLk6GJQsqaUBKTNV-5" value="No" style="edgeStyle=orthogonalEdgeStyle;rounded=0;html=1;jettySize=auto;orthogonalLoop=1;fontSize=11;endArrow=block;endFill=0;endSize=8;strokeWidth=1;shadow=0;labelBackgroundColor=none;" parent="WIyWlLk6GJQsqaUBKTNV-1" edge="1">
          <mxGeometry y="10" relative="1" as="geometry">
            <mxPoint as="offset" />
            <mxPoint x="270" y="210" as="sourcePoint" />
          </mxGeometry>
        </mxCell>
        <mxCell id="WIyWlLk6GJQsqaUBKTNV-8" value="No" style="rounded=0;html=1;jettySize=auto;orthogonalLoop=1;fontSize=11;endArrow=block;endFill=0;endSize=8;strokeWidth=1;shadow=0;labelBackgroundColor=none;edgeStyle=orthogonalEdgeStyle;" parent="WIyWlLk6GJQsqaUBKTNV-1" edge="1">
          <mxGeometry x="0.3333" y="20" relative="1" as="geometry">
            <mxPoint as="offset" />
            <mxPoint x="220" y="370" as="sourcePoint" />
          </mxGeometry>
        </mxCell>
        <mxCell id="WIyWlLk6GJQsqaUBKTNV-9" value="Yes" style="edgeStyle=orthogonalEdgeStyle;rounded=0;html=1;jettySize=auto;orthogonalLoop=1;fontSize=11;endArrow=block;endFill=0;endSize=8;strokeWidth=1;shadow=0;labelBackgroundColor=none;" parent="WIyWlLk6GJQsqaUBKTNV-1" edge="1">
          <mxGeometry y="10" relative="1" as="geometry">
            <mxPoint as="offset" />
            <mxPoint x="320" y="330" as="targetPoint" />
          </mxGeometry>
        </mxCell>
        <mxCell id="6XaMNR3jzkahdkMsGVPr-12" style="edgeStyle=orthogonalEdgeStyle;rounded=0;orthogonalLoop=1;jettySize=auto;html=1;exitX=0.5;exitY=1;exitDx=0;exitDy=0;exitPerimeter=0;entryX=0.5;entryY=0;entryDx=0;entryDy=0;fontFamily=Helvetica;fontSize=12;fontColor=default;" edge="1" parent="WIyWlLk6GJQsqaUBKTNV-1" source="XfOsy0nmJ5fPJq4JmBSt-1" target="6XaMNR3jzkahdkMsGVPr-3">
          <mxGeometry relative="1" as="geometry" />
        </mxCell>
        <mxCell id="XfOsy0nmJ5fPJq4JmBSt-1" value="&lt;font style=&quot;font-size: 18px;&quot;&gt;Start&lt;/font&gt;" style="strokeWidth=2;html=1;shape=mxgraph.flowchart.start_1;whiteSpace=wrap;" parent="WIyWlLk6GJQsqaUBKTNV-1" vertex="1">
          <mxGeometry x="364" y="-40" width="100" height="60" as="geometry" />
        </mxCell>
        <mxCell id="6XaMNR3jzkahdkMsGVPr-24" style="edgeStyle=orthogonalEdgeStyle;rounded=0;orthogonalLoop=1;jettySize=auto;html=1;exitX=0.5;exitY=1;exitDx=0;exitDy=0;exitPerimeter=0;entryX=0.5;entryY=0;entryDx=0;entryDy=0;fontFamily=Helvetica;fontSize=12;fontColor=default;" edge="1" parent="WIyWlLk6GJQsqaUBKTNV-1" source="XfOsy0nmJ5fPJq4JmBSt-39" target="6XaMNR3jzkahdkMsGVPr-23">
          <mxGeometry relative="1" as="geometry" />
        </mxCell>
        <mxCell id="6XaMNR3jzkahdkMsGVPr-25" value="&lt;font style=&quot;font-size: 15px;&quot;&gt;Yes&lt;/font&gt;" style="edgeLabel;html=1;align=center;verticalAlign=middle;resizable=0;points=[];strokeColor=default;strokeWidth=2;fontFamily=Helvetica;fontSize=12;fontColor=default;fillColor=default;" vertex="1" connectable="0" parent="6XaMNR3jzkahdkMsGVPr-24">
          <mxGeometry x="-0.0316" relative="1" as="geometry">
            <mxPoint as="offset" />
          </mxGeometry>
        </mxCell>
        <mxCell id="6XaMNR3jzkahdkMsGVPr-39" style="edgeStyle=orthogonalEdgeStyle;rounded=0;orthogonalLoop=1;jettySize=auto;html=1;exitX=1;exitY=0.5;exitDx=0;exitDy=0;exitPerimeter=0;fontFamily=Helvetica;fontSize=12;fontColor=default;" edge="1" parent="WIyWlLk6GJQsqaUBKTNV-1" source="XfOsy0nmJ5fPJq4JmBSt-39" target="6XaMNR3jzkahdkMsGVPr-38">
          <mxGeometry relative="1" as="geometry" />
        </mxCell>
        <mxCell id="6XaMNR3jzkahdkMsGVPr-56" value="No" style="edgeLabel;html=1;align=center;verticalAlign=middle;resizable=0;points=[];strokeColor=default;strokeWidth=2;fontFamily=Helvetica;fontSize=12;fontColor=default;fillColor=default;" vertex="1" connectable="0" parent="6XaMNR3jzkahdkMsGVPr-39">
          <mxGeometry x="0.027" y="-1" relative="1" as="geometry">
            <mxPoint as="offset" />
          </mxGeometry>
        </mxCell>
        <mxCell id="XfOsy0nmJ5fPJq4JmBSt-39" value="&lt;font style=&quot;font-size: 14px;&quot;&gt;If suppliers fill the&lt;/font&gt;&lt;div&gt;&lt;font style=&quot;font-size: 14px;&quot;&gt;&amp;nbsp;form&lt;/font&gt;&lt;/div&gt;" style="strokeWidth=2;html=1;shape=mxgraph.flowchart.decision;whiteSpace=wrap;" parent="WIyWlLk6GJQsqaUBKTNV-1" vertex="1">
          <mxGeometry x="340" y="1020" width="170" height="120" as="geometry" />
        </mxCell>
        <mxCell id="6XaMNR3jzkahdkMsGVPr-41" style="edgeStyle=orthogonalEdgeStyle;rounded=0;orthogonalLoop=1;jettySize=auto;html=1;entryX=1;entryY=0.5;entryDx=0;entryDy=0;fontFamily=Helvetica;fontSize=12;fontColor=default;" edge="1" parent="WIyWlLk6GJQsqaUBKTNV-1" source="XfOsy0nmJ5fPJq4JmBSt-48" target="6XaMNR3jzkahdkMsGVPr-23">
          <mxGeometry relative="1" as="geometry" />
        </mxCell>
        <mxCell id="6XaMNR3jzkahdkMsGVPr-53" value="Yes" style="edgeLabel;html=1;align=center;verticalAlign=middle;resizable=0;points=[];strokeColor=default;strokeWidth=2;fontFamily=Helvetica;fontSize=12;fontColor=default;fillColor=default;" vertex="1" connectable="0" parent="6XaMNR3jzkahdkMsGVPr-41">
          <mxGeometry x="-0.032" relative="1" as="geometry">
            <mxPoint as="offset" />
          </mxGeometry>
        </mxCell>
        <mxCell id="XfOsy0nmJ5fPJq4JmBSt-48" value="If suppliers replies&amp;nbsp;" style="strokeWidth=2;html=1;shape=mxgraph.flowchart.decision;whiteSpace=wrap;" parent="WIyWlLk6GJQsqaUBKTNV-1" vertex="1">
          <mxGeometry x="800" y="1220" width="220" height="150" as="geometry" />
        </mxCell>
        <mxCell id="6XaMNR3jzkahdkMsGVPr-3" value="&lt;font style=&quot;font-size: 14px;&quot;&gt;Get the client message from&lt;/font&gt;&lt;div&gt;&lt;font style=&quot;font-size: 14px;&quot;&gt;Truventor&lt;/font&gt;&lt;/div&gt;" style="rounded=1;whiteSpace=wrap;html=1;absoluteArcSize=1;arcSize=14;strokeWidth=2;" vertex="1" parent="WIyWlLk6GJQsqaUBKTNV-1">
          <mxGeometry x="269" y="130" width="290" height="60" as="geometry" />
        </mxCell>
        <mxCell id="6XaMNR3jzkahdkMsGVPr-35" style="edgeStyle=orthogonalEdgeStyle;rounded=0;orthogonalLoop=1;jettySize=auto;html=1;exitX=0.5;exitY=1;exitDx=0;exitDy=0;entryX=0.5;entryY=0;entryDx=0;entryDy=0;fontFamily=Helvetica;fontSize=12;fontColor=default;" edge="1" parent="WIyWlLk6GJQsqaUBKTNV-1" source="6XaMNR3jzkahdkMsGVPr-6" target="6XaMNR3jzkahdkMsGVPr-17">
          <mxGeometry relative="1" as="geometry" />
        </mxCell>
        <mxCell id="6XaMNR3jzkahdkMsGVPr-6" value="&lt;font style=&quot;text-wrap-mode: nowrap; font-size: 14px;&quot;&gt;AI send a query&amp;nbsp;&lt;/font&gt;&lt;span style=&quot;font-size: 14px; text-wrap-mode: nowrap; background-color: transparent; color: light-dark(rgb(0, 0, 0), rgb(255, 255, 255));&quot;&gt;to fetch all the steel&amp;nbsp;&lt;/span&gt;&lt;font style=&quot;font-size: 14px; text-wrap-mode: nowrap; background-color: transparent; color: light-dark(rgb(0, 0, 0), rgb(255, 255, 255));&quot;&gt;supplier&amp;nbsp;&lt;/font&gt;&lt;span style=&quot;font-size: 14px; text-wrap-mode: nowrap; color: light-dark(rgb(0, 0, 0), rgb(255, 255, 255)); background-color: light-dark(#ffffff, var(--ge-dark-color, #121212));&quot;&gt;of&lt;/span&gt;&lt;div&gt;&lt;span style=&quot;font-size: 14px; text-wrap-mode: nowrap; color: light-dark(rgb(0, 0, 0), rgb(255, 255, 255)); background-color: light-dark(#ffffff, var(--ge-dark-color, #121212));&quot;&gt;&amp;nbsp;location&amp;nbsp;&amp;nbsp;&lt;/span&gt;&lt;span style=&quot;font-size: 14px; background-color: light-dark(#ffffff, var(--ge-dark-color, #121212)); color: light-dark(rgb(0, 0, 0), rgb(255, 255, 255)); text-wrap-mode: nowrap;&quot;&gt;delhi from database&lt;/span&gt;&lt;/div&gt;" style="rounded=1;whiteSpace=wrap;html=1;absoluteArcSize=1;arcSize=14;strokeWidth=2;align=center;" vertex="1" parent="WIyWlLk6GJQsqaUBKTNV-1">
          <mxGeometry x="260" y="480" width="320" height="70" as="geometry" />
        </mxCell>
        <mxCell id="6XaMNR3jzkahdkMsGVPr-34" style="edgeStyle=orthogonalEdgeStyle;rounded=0;orthogonalLoop=1;jettySize=auto;html=1;fontFamily=Helvetica;fontSize=12;fontColor=default;" edge="1" parent="WIyWlLk6GJQsqaUBKTNV-1" source="6XaMNR3jzkahdkMsGVPr-8">
          <mxGeometry relative="1" as="geometry">
            <mxPoint x="420" y="480" as="targetPoint" />
          </mxGeometry>
        </mxCell>
        <mxCell id="6XaMNR3jzkahdkMsGVPr-8" value="&lt;span style=&quot;background-color: light-dark(#ffffff, var(--ge-dark-color, #121212));&quot;&gt;&lt;font style=&quot;color: light-dark(rgb(0, 0, 0), rgb(255, 255, 255));&quot;&gt;&lt;font style=&quot;forced-color-adjust: none; font-family: Helvetica; font-style: normal; font-variant-ligatures: normal; font-variant-caps: normal; font-weight: 400; letter-spacing: normal; orphans: 2; text-align: center; text-indent: 0px; text-transform: none; widows: 2; word-spacing: 0px; -webkit-text-stroke-width: 0px; white-space: normal; text-decoration-thickness: initial; text-decoration-style: initial; text-decoration-color: initial; font-size: 15px; box-shadow: none !important;&quot;&gt;AI analysis the message&amp;nbsp;&lt;/font&gt;&lt;span style=&quot;font-size: 15px;&quot;&gt;(suppose client wants a 200kg steels in delhi of grade A under 3 days)&amp;nbsp;&lt;/span&gt;&lt;/font&gt;&lt;/span&gt;" style="rounded=1;whiteSpace=wrap;html=1;absoluteArcSize=1;arcSize=14;strokeWidth=2;strokeColor=default;align=center;verticalAlign=middle;fontFamily=Helvetica;fontSize=12;fontColor=default;fillColor=default;" vertex="1" parent="WIyWlLk6GJQsqaUBKTNV-1">
          <mxGeometry x="260" y="320" width="320" height="80" as="geometry" />
        </mxCell>
        <mxCell id="6XaMNR3jzkahdkMsGVPr-13" style="edgeStyle=orthogonalEdgeStyle;rounded=0;orthogonalLoop=1;jettySize=auto;html=1;exitX=0.5;exitY=1;exitDx=0;exitDy=0;entryX=0.481;entryY=-0.05;entryDx=0;entryDy=0;entryPerimeter=0;fontFamily=Helvetica;fontSize=12;fontColor=default;" edge="1" parent="WIyWlLk6GJQsqaUBKTNV-1" source="6XaMNR3jzkahdkMsGVPr-3" target="6XaMNR3jzkahdkMsGVPr-8">
          <mxGeometry relative="1" as="geometry" />
        </mxCell>
        <mxCell id="6XaMNR3jzkahdkMsGVPr-17" value="&lt;font style=&quot;text-wrap-mode: nowrap; font-size: 14px;&quot;&gt;Details of steel supplier in&lt;/font&gt;&lt;div style=&quot;text-wrap-mode: nowrap;&quot;&gt;&lt;font style=&quot;font-size: 14px;&quot;&gt;Delhi&lt;/font&gt;&lt;/div&gt;" style="rounded=1;whiteSpace=wrap;html=1;absoluteArcSize=1;arcSize=14;strokeWidth=2;strokeColor=default;align=center;verticalAlign=middle;fontFamily=Helvetica;fontSize=12;fontColor=default;fillColor=default;" vertex="1" parent="WIyWlLk6GJQsqaUBKTNV-1">
          <mxGeometry x="255" y="670" width="330" height="80" as="geometry" />
        </mxCell>
        <mxCell id="6XaMNR3jzkahdkMsGVPr-20" value="&lt;font style=&quot;font-size: 15px;&quot;&gt;Send the message of client to the supplier&lt;/font&gt;" style="rounded=1;whiteSpace=wrap;html=1;absoluteArcSize=1;arcSize=14;strokeWidth=2;strokeColor=default;align=center;verticalAlign=middle;fontFamily=Helvetica;fontSize=12;fontColor=default;fillColor=default;" vertex="1" parent="WIyWlLk6GJQsqaUBKTNV-1">
          <mxGeometry x="260" y="840" width="330" height="80" as="geometry" />
        </mxCell>
        <mxCell id="6XaMNR3jzkahdkMsGVPr-21" style="edgeStyle=orthogonalEdgeStyle;rounded=0;orthogonalLoop=1;jettySize=auto;html=1;exitX=0.5;exitY=1;exitDx=0;exitDy=0;entryX=0.482;entryY=-0.025;entryDx=0;entryDy=0;entryPerimeter=0;fontFamily=Helvetica;fontSize=12;fontColor=default;" edge="1" parent="WIyWlLk6GJQsqaUBKTNV-1" source="6XaMNR3jzkahdkMsGVPr-17" target="6XaMNR3jzkahdkMsGVPr-20">
          <mxGeometry relative="1" as="geometry" />
        </mxCell>
        <mxCell id="6XaMNR3jzkahdkMsGVPr-22" style="edgeStyle=orthogonalEdgeStyle;rounded=0;orthogonalLoop=1;jettySize=auto;html=1;exitX=0.5;exitY=1;exitDx=0;exitDy=0;entryX=0.5;entryY=0;entryDx=0;entryDy=0;entryPerimeter=0;fontFamily=Helvetica;fontSize=12;fontColor=default;" edge="1" parent="WIyWlLk6GJQsqaUBKTNV-1" source="6XaMNR3jzkahdkMsGVPr-20" target="XfOsy0nmJ5fPJq4JmBSt-39">
          <mxGeometry relative="1" as="geometry" />
        </mxCell>
        <mxCell id="6XaMNR3jzkahdkMsGVPr-23" value="&lt;font style=&quot;font-size: 15px;&quot;&gt;Save the supplier message in database&lt;/font&gt;" style="rounded=1;whiteSpace=wrap;html=1;absoluteArcSize=1;arcSize=14;strokeWidth=2;strokeColor=default;align=center;verticalAlign=middle;fontFamily=Helvetica;fontSize=12;fontColor=default;fillColor=default;" vertex="1" parent="WIyWlLk6GJQsqaUBKTNV-1">
          <mxGeometry x="295" y="1255" width="260" height="80" as="geometry" />
        </mxCell>
        <mxCell id="6XaMNR3jzkahdkMsGVPr-30" style="edgeStyle=orthogonalEdgeStyle;rounded=0;orthogonalLoop=1;jettySize=auto;html=1;entryX=0.483;entryY=-0.033;entryDx=0;entryDy=0;entryPerimeter=0;fontFamily=Helvetica;fontSize=12;fontColor=default;" edge="1" parent="WIyWlLk6GJQsqaUBKTNV-1" source="6XaMNR3jzkahdkMsGVPr-23">
          <mxGeometry relative="1" as="geometry">
            <mxPoint x="424.98199999999997" y="1408.02" as="targetPoint" />
          </mxGeometry>
        </mxCell>
        <mxCell id="6XaMNR3jzkahdkMsGVPr-32" style="edgeStyle=orthogonalEdgeStyle;rounded=0;orthogonalLoop=1;jettySize=auto;html=1;exitX=0.5;exitY=1;exitDx=0;exitDy=0;fontFamily=Helvetica;fontSize=12;fontColor=default;" edge="1" parent="WIyWlLk6GJQsqaUBKTNV-1" source="6XaMNR3jzkahdkMsGVPr-31">
          <mxGeometry relative="1" as="geometry">
            <mxPoint x="430" y="1570" as="targetPoint" />
          </mxGeometry>
        </mxCell>
        <mxCell id="6XaMNR3jzkahdkMsGVPr-31" value="&lt;font style=&quot;font-size: 14px;&quot;&gt;From the form data LLM select the winner&lt;/font&gt;&lt;div&gt;&lt;font style=&quot;font-size: 14px;&quot;&gt;by checking the grade, delivery time, price&amp;nbsp;&lt;/font&gt;&lt;/div&gt;" style="rounded=1;whiteSpace=wrap;html=1;absoluteArcSize=1;arcSize=14;strokeWidth=2;strokeColor=default;align=center;verticalAlign=middle;fontFamily=Helvetica;fontSize=12;fontColor=default;fillColor=default;" vertex="1" parent="WIyWlLk6GJQsqaUBKTNV-1">
          <mxGeometry x="300" y="1410" width="260" height="60" as="geometry" />
        </mxCell>
        <mxCell id="6XaMNR3jzkahdkMsGVPr-33" value="&lt;font style=&quot;font-size: 14px;&quot;&gt;Send the congratulation message to the winner supplier with payment form&amp;nbsp;&lt;/font&gt;" style="rounded=1;whiteSpace=wrap;html=1;absoluteArcSize=1;arcSize=14;strokeWidth=2;strokeColor=default;align=center;verticalAlign=middle;fontFamily=Helvetica;fontSize=12;fontColor=default;fillColor=default;" vertex="1" parent="WIyWlLk6GJQsqaUBKTNV-1">
          <mxGeometry x="300" y="1570" width="260" height="70" as="geometry" />
        </mxCell>
        <mxCell id="6XaMNR3jzkahdkMsGVPr-38" value="Send message to the supplier" style="shape=parallelogram;html=1;strokeWidth=2;perimeter=parallelogramPerimeter;whiteSpace=wrap;rounded=1;arcSize=12;size=0.23;strokeColor=default;align=center;verticalAlign=middle;fontFamily=Helvetica;fontSize=12;fontColor=default;fillColor=default;" vertex="1" parent="WIyWlLk6GJQsqaUBKTNV-1">
          <mxGeometry x="780" y="1050" width="260" height="60" as="geometry" />
        </mxCell>
        <mxCell id="6XaMNR3jzkahdkMsGVPr-40" style="edgeStyle=orthogonalEdgeStyle;rounded=0;orthogonalLoop=1;jettySize=auto;html=1;exitX=0.5;exitY=1;exitDx=0;exitDy=0;entryX=0.5;entryY=0;entryDx=0;entryDy=0;entryPerimeter=0;fontFamily=Helvetica;fontSize=12;fontColor=default;" edge="1" parent="WIyWlLk6GJQsqaUBKTNV-1" source="6XaMNR3jzkahdkMsGVPr-38" target="XfOsy0nmJ5fPJq4JmBSt-48">
          <mxGeometry relative="1" as="geometry" />
        </mxCell>
        <mxCell id="6XaMNR3jzkahdkMsGVPr-46" value="&lt;font style=&quot;font-size: 14px;&quot;&gt;END&lt;/font&gt;" style="strokeWidth=2;html=1;shape=mxgraph.flowchart.start_2;whiteSpace=wrap;strokeColor=default;align=center;verticalAlign=middle;fontFamily=Helvetica;fontSize=12;fontColor=default;fillColor=default;" vertex="1" parent="WIyWlLk6GJQsqaUBKTNV-1">
          <mxGeometry x="-10" y="1800" width="100" height="70" as="geometry" />
        </mxCell>
        <mxCell id="6XaMNR3jzkahdkMsGVPr-47" value="&lt;font style=&quot;font-size: 15px;&quot;&gt;C&lt;/font&gt;" style="strokeWidth=2;html=1;shape=mxgraph.flowchart.start_2;whiteSpace=wrap;strokeColor=default;align=center;verticalAlign=middle;fontFamily=Helvetica;fontSize=12;fontColor=default;fillColor=default;" vertex="1" parent="WIyWlLk6GJQsqaUBKTNV-1">
          <mxGeometry x="-10" y="1620" width="100" height="80" as="geometry" />
        </mxCell>
        <mxCell id="6XaMNR3jzkahdkMsGVPr-48" value="&lt;font style=&quot;font-size: 15px;&quot;&gt;C&lt;/font&gt;" style="strokeWidth=2;html=1;shape=mxgraph.flowchart.start_2;whiteSpace=wrap;strokeColor=default;align=center;verticalAlign=middle;fontFamily=Helvetica;fontSize=12;fontColor=default;fillColor=default;" vertex="1" parent="WIyWlLk6GJQsqaUBKTNV-1">
          <mxGeometry x="385" y="1730" width="90" height="81" as="geometry" />
        </mxCell>
        <mxCell id="6XaMNR3jzkahdkMsGVPr-49" style="edgeStyle=orthogonalEdgeStyle;rounded=0;orthogonalLoop=1;jettySize=auto;html=1;entryX=0.5;entryY=0;entryDx=0;entryDy=0;entryPerimeter=0;fontFamily=Helvetica;fontSize=12;fontColor=default;" edge="1" parent="WIyWlLk6GJQsqaUBKTNV-1" source="6XaMNR3jzkahdkMsGVPr-33" target="6XaMNR3jzkahdkMsGVPr-48">
          <mxGeometry relative="1" as="geometry" />
        </mxCell>
        <mxCell id="6XaMNR3jzkahdkMsGVPr-50" value="&lt;font style=&quot;font-size: 14px;&quot;&gt;C&lt;/font&gt;" style="strokeWidth=2;html=1;shape=mxgraph.flowchart.start_2;whiteSpace=wrap;strokeColor=default;align=center;verticalAlign=middle;fontFamily=Helvetica;fontSize=12;fontColor=default;fillColor=default;" vertex="1" parent="WIyWlLk6GJQsqaUBKTNV-1">
          <mxGeometry x="865" y="1480" width="90" height="80" as="geometry" />
        </mxCell>
        <mxCell id="6XaMNR3jzkahdkMsGVPr-54" style="edgeStyle=orthogonalEdgeStyle;rounded=0;orthogonalLoop=1;jettySize=auto;html=1;entryX=0.5;entryY=0;entryDx=0;entryDy=0;entryPerimeter=0;fontFamily=Helvetica;fontSize=12;fontColor=default;" edge="1" parent="WIyWlLk6GJQsqaUBKTNV-1" source="XfOsy0nmJ5fPJq4JmBSt-48" target="6XaMNR3jzkahdkMsGVPr-50">
          <mxGeometry relative="1" as="geometry" />
        </mxCell>
        <mxCell id="6XaMNR3jzkahdkMsGVPr-55" style="edgeStyle=orthogonalEdgeStyle;rounded=0;orthogonalLoop=1;jettySize=auto;html=1;entryX=0.5;entryY=0;entryDx=0;entryDy=0;entryPerimeter=0;fontFamily=Helvetica;fontSize=12;fontColor=default;" edge="1" parent="WIyWlLk6GJQsqaUBKTNV-1" source="6XaMNR3jzkahdkMsGVPr-47" target="6XaMNR3jzkahdkMsGVPr-46">
          <mxGeometry relative="1" as="geometry" />
        </mxCell>
      </root>
    </mxGraphModel>
  </diagram>
</mxfile>
